<?xml version="1.0" encoding="UTF-8"?>
<svg width="1172px" height="353px" viewBox="0 0 1172 353" version="1.1" xmlns="http://www.w3.org/2000/svg" xmlns:xlink="http://www.w3.org/1999/xlink">
    <!-- Generator: Sketch 40.3 (33839) - http://www.bohemiancoding.com/sketch -->
    <title>Group</title>
    <desc>Created with Sketch.</desc>
    <defs></defs>
    <g id="Page-1" stroke="none" stroke-width="1" fill="none" fill-rule="evenodd">
        <g id="Group">
            <path d="M52.689462,92.2154185 L61.0824736,92.2154185 C68.8538196,92.2154185 74.4491047,89.7791727 77.8684969,84.9066079 L128.848271,10.8854626 C131.853192,6.94594212 135.091204,4.2246037 138.562405,2.72136564 C142.033606,1.21812758 146.359591,0.466519824 151.540488,0.466519824 L197.235774,0.466519824 L130.09168,92.0599119 C125.325255,98.3838789 120.196244,102.94536 114.704492,105.744493 C118.641974,107.195896 122.21674,109.217461 125.428896,111.809251 C128.641053,114.401041 131.645928,117.770317 134.443612,121.917181 L202.831115,227.039648 L155.89242,227.039648 C152.8875,227.039648 150.322994,226.832308 148.198826,226.417621 C146.074658,226.002935 144.235467,225.380915 142.681198,224.551542 C141.126929,223.722169 139.779916,222.711386 138.640118,221.519163 C137.500321,220.32694 136.412349,218.953312 135.376169,217.398238 L84.0855426,138.556388 C82.2204195,135.653583 79.8631466,133.6061 77.0136531,132.413877 C74.1641596,131.221653 70.304449,130.625551 65.4344056,130.625551 L52.689462,130.625551 L52.689462,227.039648 L0.155426142,227.039648 L0.155426142,0.466519824 L52.689462,0.466519824 L52.689462,92.2154185 Z M272.617452,40.8982379 L272.617452,93.7704846 L343.802625,93.7704846 L343.802625,132.647137 L272.617452,132.647137 L272.617452,186.60793 L365.562285,186.60793 L365.562285,227.039648 L219.772564,227.039648 L219.772564,0.466519824 L365.562285,0.466519824 L365.562285,40.8982379 L272.617452,40.8982379 Z M506.378369,140.888987 L506.378369,227.039648 L453.844333,227.039648 L453.844333,140.888987 L371.779331,0.466519824 L418.096321,0.466519824 C422.65551,0.466519824 426.25618,1.52913769 428.898438,3.65440529 C431.540695,5.77967289 433.742543,8.50101131 435.504049,11.8185022 L467.521834,77.753304 C470.2159,82.9368835 472.650886,87.7834576 474.826862,92.2931718 C477.002839,96.802886 478.919742,101.23478 480.57763,105.588987 C482.131899,101.131108 483.919282,96.6473794 485.939831,92.1376652 C487.960381,87.627951 490.317654,82.8332119 493.011721,77.753304 L524.718654,11.8185022 C525.443979,10.4707715 526.324719,9.12306107 527.360898,7.7753304 C528.397078,6.42759972 529.61457,5.20947681 531.013413,4.12092511 C532.412255,3.03237341 534.018309,2.15117811 535.831623,1.47731278 C537.644937,0.803447438 539.639553,0.466519824 541.815529,0.466519824 L588.443372,0.466519824 L506.378369,140.888987 Z" id="KEYGAS" fill="#0072BC"></path>
            <path d="M19.7795308,321.136696 C21.5855916,321.136696 23.1794707,320.897218 24.561216,320.418256 C25.9429613,319.939293 27.1070915,319.269844 28.0536414,318.409888 C29.0001913,317.549932 29.7128131,316.521266 30.191528,315.323859 C30.6702429,314.126452 30.9095968,312.809324 30.9095968,311.372436 C30.9095968,308.389804 29.9902603,306.060339 28.1515599,304.383969 C26.3128594,302.7076 23.522211,301.869427 19.7795308,301.869427 L12.2724481,301.869427 L12.2724481,321.136696 L19.7795308,321.136696 Z M19.7795308,296.873 C22.7388593,296.873 25.3119133,297.215889 27.4987701,297.901676 C29.6856268,298.587464 31.4971004,299.561703 32.9332451,300.824423 C34.3693899,302.087143 35.4410424,303.611092 36.1482349,305.396317 C36.8554273,307.181542 37.2090183,309.173562 37.2090183,311.372436 C37.2090183,313.54954 36.828228,315.541559 36.0666361,317.348555 C35.3050442,319.155551 34.1898728,320.712156 32.7210884,322.018419 C31.2523041,323.324681 29.4353906,324.342461 27.2702937,325.071791 C25.1051967,325.80112 22.6083007,326.16578 19.7795308,326.16578 L12.2724481,326.16578 L12.2724481,343.669604 L5.97302662,343.669604 L5.97302662,296.873 L19.7795308,296.873 Z M71.7089589,338.346612 L71.7089589,343.669604 L45.1730538,343.669604 L45.1730538,296.873 L51.4724753,296.873 L51.4724753,338.346612 L71.7089589,338.346612 Z M95.0461941,338.64052 C96.9828135,338.64052 98.7126891,338.313959 100.235873,337.660828 C101.759057,337.007697 103.048304,336.093327 104.103652,334.917692 C105.159001,333.742056 105.964101,332.337845 106.518975,330.705018 C107.073849,329.07219 107.351282,327.276107 107.351282,325.316714 L107.351282,296.873 L113.650703,296.873 L113.650703,325.316714 C113.650703,328.016322 113.220954,330.519953 112.361443,332.827683 C111.501933,335.135412 110.272524,337.132875 108.673181,338.82013 C107.073838,340.507385 105.120928,341.829956 102.814393,342.787881 C100.507857,343.745807 97.9184835,344.224762 95.0461941,344.224762 C92.1739046,344.224762 89.584531,343.745807 87.2779955,342.787881 C84.97146,341.829956 83.0131102,340.507385 81.4028874,338.82013 C79.7926645,337.132875 78.5578161,335.135412 77.6983053,332.827683 C76.8387944,330.519953 76.4090454,328.016322 76.4090454,325.316714 L76.4090454,296.873 L82.708467,296.873 L82.708467,325.284057 C82.708467,327.24345 82.9858998,329.039534 83.5407739,330.672361 C84.095648,332.305189 84.9007474,333.709399 85.9560962,334.885035 C87.011445,336.060671 88.3061318,336.980483 89.8401955,337.6445 C91.3742591,338.308517 93.1095747,338.64052 95.0461941,338.64052 L95.0461941,338.64052 Z M173.674725,296.873 L173.674725,343.669604 L168.126012,343.669604 L168.126012,309.282427 C168.126012,308.825236 168.142331,308.335395 168.174971,307.81289 C168.20761,307.290385 168.245689,306.757003 168.289209,306.212727 L152.23058,335.47285 C151.730105,336.452547 150.968525,336.942388 149.945816,336.942388 L149.03191,336.942388 C148.009201,336.942388 147.24762,336.452547 146.747146,335.47285 L130.362122,306.082101 C130.492681,307.235966 130.557959,308.302731 130.557959,309.282427 L130.557959,343.669604 L125.009246,343.669604 L125.009246,296.873 L129.676693,296.873 C130.242447,296.873 130.677635,296.927427 130.982272,297.036282 C131.286909,297.145137 131.580661,297.449927 131.863538,297.950661 L148.020086,326.753595 C148.281203,327.2761 148.536877,327.820367 148.787114,328.386414 C149.037351,328.952461 149.271265,329.529385 149.488863,330.117203 C149.706461,329.529385 149.934935,328.947018 150.174292,328.370086 C150.41365,327.793154 150.674763,327.243443 150.95764,326.720938 L166.820432,297.950661 C167.081549,297.449927 167.369862,297.145137 167.685378,297.036282 C168.000895,296.927427 168.441524,296.873 169.007278,296.873 L173.674725,296.873 Z M202.038441,338.64052 C203.844502,338.64052 205.400302,338.433698 206.705888,338.020048 C208.011475,337.606399 209.083127,337.024032 209.920878,336.272932 C210.758629,335.521831 211.373333,334.629232 211.765009,333.595108 C212.156685,332.560984 212.35252,331.423464 212.35252,330.182515 C212.35252,327.765931 211.493022,325.855551 209.774,324.451319 C208.054979,323.047088 205.476485,322.344982 202.038441,322.344982 L191.9202,322.344982 L191.9202,338.64052 L202.038441,338.64052 Z M191.9202,301.869427 L191.9202,317.838401 L200.275909,317.838401 C202.06021,317.838401 203.61057,317.642465 204.927036,317.250586 C206.243502,316.858707 207.331474,316.31444 208.190985,315.617767 C209.050496,314.921093 209.68696,314.077479 210.100395,313.086896 C210.513831,312.096314 210.720546,311.013222 210.720546,309.837586 C210.720546,307.072665 209.893687,305.053431 208.239944,303.779826 C206.586202,302.506221 204.018588,301.869427 200.537025,301.869427 L191.9202,301.869427 Z M200.537025,296.873 C203.409314,296.873 205.884451,297.156019 207.962509,297.722066 C210.040567,298.288113 211.748683,299.093629 213.086909,300.138639 C214.425134,301.183648 215.409749,302.462677 216.040782,303.975764 C216.671816,305.488851 216.987328,307.192409 216.987328,309.086489 C216.987328,310.240354 216.807812,311.345217 216.448776,312.401112 C216.08974,313.457007 215.551194,314.442132 214.833121,315.356515 C214.115049,316.270899 213.206592,317.092743 212.107724,317.822073 C211.008856,318.551402 209.719609,319.144654 208.239944,319.601846 C211.677988,320.254977 214.261922,321.479579 215.991823,323.275689 C217.721725,325.0718 218.586663,327.428479 218.586663,330.345797 C218.586663,332.326961 218.222192,334.13393 217.49324,335.766758 C216.764288,337.399585 215.698075,338.803796 214.29457,339.979432 C212.891065,341.155068 211.166629,342.063995 209.121211,342.70624 C207.075792,343.348486 204.747532,343.669604 202.13636,343.669604 L185.620778,343.669604 L185.620778,296.873 L200.537025,296.873 Z M234.155699,343.669604 L227.823638,343.669604 L227.823638,296.873 L234.155699,296.873 L234.155699,343.669604 Z M283.9962,296.873 L283.9962,343.669604 L280.83017,343.669604 C280.329695,343.669604 279.910826,343.582521 279.573549,343.408352 C279.236273,343.234184 278.904441,342.94028 278.578045,342.52663 L251.519908,307.257731 C251.563427,307.802007 251.596066,308.335389 251.617826,308.857894 C251.639586,309.380399 251.650466,309.87024 251.650466,310.327432 L251.650466,343.669604 L246.101752,343.669604 L246.101752,296.873 L249.365701,296.873 C249.648578,296.873 249.887932,296.889328 250.08377,296.921985 C250.279608,296.954641 250.453684,297.009068 250.606002,297.085267 C250.75832,297.161465 250.910637,297.270319 251.062955,297.41183 C251.215273,297.553342 251.378469,297.73295 251.552547,297.950661 L278.610684,333.186903 C278.567165,332.620856 278.529086,332.071146 278.496446,331.537756 C278.463806,331.004365 278.447487,330.498196 278.447487,330.019233 L278.447487,296.873 L283.9962,296.873 Z M333.934619,321.169352 L333.934619,339.130366 C331.584564,340.828506 329.076789,342.09665 326.411217,342.934835 C323.745645,343.77302 320.82444,344.192106 317.647514,344.192106 C313.883074,344.192106 310.488601,343.609739 307.463993,342.444989 C304.439385,341.280239 301.855452,339.647436 299.712114,337.546531 C297.568777,335.445626 295.920499,332.925667 294.767232,329.986577 C293.613964,327.047488 293.037339,323.814537 293.037339,320.28763 C293.037339,316.71718 293.597644,313.46246 294.718272,310.52337 C295.838901,307.58428 297.43278,305.064321 299.499958,302.963416 C301.567136,300.862512 304.080351,299.235151 307.03968,298.081286 C309.999008,296.927422 313.306444,296.350498 316.962085,296.350498 C318.811665,296.350498 320.530661,296.486565 322.119124,296.758703 C323.707587,297.030841 325.17635,297.422713 326.525455,297.934333 C327.874561,298.445952 329.125729,299.066417 330.278996,299.795747 C331.432264,300.525076 332.509357,301.346921 333.510306,302.261304 L331.715134,305.135066 C331.432257,305.570487 331.067786,305.848063 330.621711,305.967804 C330.175636,306.087545 329.680609,305.984134 329.136614,305.657568 C328.61438,305.352774 328.015995,304.982672 327.341442,304.547251 C326.66689,304.11183 325.845471,303.692744 324.877161,303.28998 C323.908851,302.887216 322.766481,302.544327 321.450015,302.261304 C320.133549,301.978281 318.572309,301.836771 316.766248,301.836771 C314.133316,301.836771 311.750657,302.266742 309.618199,303.126698 C307.485742,303.986654 305.668829,305.216699 304.167405,306.81687 C302.665981,308.417041 301.51273,310.354634 300.707619,312.629707 C299.902507,314.90478 299.499958,317.457396 299.499958,320.28763 C299.499958,323.22672 299.918827,325.855532 300.756578,328.174148 C301.594329,330.492763 302.791098,332.463012 304.346922,334.084954 C305.902745,335.706896 307.790377,336.942383 310.009873,337.791454 C312.22937,338.640524 314.720826,339.065053 317.484317,339.065053 C319.660293,339.065053 321.591444,338.820132 323.277826,338.330284 C324.964208,337.840436 326.612486,337.160101 328.222709,336.28926 L328.222709,326.002498 L320.944102,326.002498 C320.530667,326.002498 320.198835,325.882759 319.948598,325.643278 C319.698361,325.403796 319.573244,325.109892 319.573244,324.761555 L319.573244,321.169352 L333.934619,321.169352 Z M341.898655,351.572449 C341.724577,351.420052 341.6049,351.278543 341.53962,351.147916 C341.474341,351.01729 341.441702,350.85401 341.441702,350.65807 C341.441702,350.505673 341.490661,350.353278 341.58858,350.200881 C341.686499,350.048484 341.800736,349.906974 341.931294,349.776348 C342.148892,349.536867 342.426325,349.221191 342.763601,348.829313 C343.100878,348.437434 343.443589,347.974807 343.791745,347.441416 C344.139902,346.908026 344.460853,346.320217 344.75461,345.677971 C345.048367,345.035726 345.260522,344.355391 345.39108,343.636947 C345.325801,343.658718 345.255083,343.669604 345.178924,343.669604 L344.966767,343.669604 C343.835259,343.669604 342.915922,343.294059 342.20873,342.542958 C341.501537,341.791857 341.147947,340.828504 341.147947,339.652868 C341.147947,338.629629 341.501537,337.758801 342.20873,337.040357 C342.915922,336.321913 343.857018,335.962696 345.032046,335.962696 C345.684839,335.962696 346.261464,336.082435 346.761939,336.321916 C347.262413,336.561398 347.681283,336.893401 348.018559,337.317936 C348.355836,337.742471 348.611509,338.232312 348.785587,338.787474 C348.959665,339.342635 349.046703,339.946772 349.046703,340.599903 C349.046703,341.5796 348.910707,342.59738 348.638709,343.653275 C348.366712,344.70917 347.964163,345.754164 347.431048,346.788289 C346.897934,347.822413 346.250591,348.829308 345.488999,349.809004 C344.727407,350.788701 343.857029,351.692185 342.87784,352.519485 L341.898655,351.572449 Z M413.052742,296.873 L413.052742,343.669604 L406.720681,343.669604 L406.720681,322.377639 L381.490356,322.377639 L381.490356,343.669604 L375.158295,343.669604 L375.158295,296.873 L381.490356,296.873 L381.490356,317.740432 L406.720681,317.740432 L406.720681,296.873 L413.052742,296.873 Z M453.852105,338.509894 L453.819465,343.669604 L424.998796,343.669604 L424.998796,296.873 L453.819465,296.873 L453.819465,302.032709 L431.330857,302.032709 L431.330857,317.57715 L449.543692,317.57715 L449.543692,322.540921 L431.330857,322.540921 L431.330857,338.509894 L453.852105,338.509894 Z M487.536058,326.296405 L480.192173,307.257731 C479.974575,306.691684 479.746101,306.03312 479.506743,305.28202 C479.267386,304.530919 479.038912,303.730846 478.821314,302.881775 C478.364359,304.645229 477.896531,306.114752 477.417816,307.290388 L470.073931,326.296405 L487.536058,326.296405 Z M500.722412,343.669604 L495.826488,343.669604 C495.260734,343.669604 494.803786,343.528094 494.45563,343.24507 C494.107473,342.962047 493.84636,342.60283 493.672282,342.16741 L489.29859,330.8683 L468.311399,330.8683 L463.937707,342.16741 C463.807148,342.559288 463.556915,342.90762 463.186999,343.212414 C462.817083,343.517209 462.360134,343.669604 461.81614,343.669604 L456.920217,343.669604 L475.622644,296.873 L482.019984,296.873 L500.722412,343.669604 Z M533.916773,302.195991 L518.77205,302.195991 L518.77205,343.669604 L512.472628,343.669604 L512.472628,302.195991 L497.295265,302.195991 L497.295265,296.873 L533.916773,296.873 L533.916773,302.195991 Z M547.168406,343.669604 L540.836345,343.669604 L540.836345,296.873 L547.168406,296.873 L547.168406,343.669604 Z M597.008906,296.873 L597.008906,343.669604 L593.842876,343.669604 C593.342401,343.669604 592.923532,343.582521 592.586256,343.408352 C592.248979,343.234184 591.917148,342.94028 591.590751,342.52663 L564.532614,307.257731 C564.576134,307.802007 564.608773,308.335389 564.630533,308.857894 C564.652292,309.380399 564.663172,309.87024 564.663172,310.327432 L564.663172,343.669604 L559.114459,343.669604 L559.114459,296.873 L562.378408,296.873 C562.661285,296.873 562.900639,296.889328 563.096477,296.921985 C563.292315,296.954641 563.46639,297.009068 563.618708,297.085267 C563.771027,297.161465 563.923343,297.270319 564.075661,297.41183 C564.22798,297.553342 564.391176,297.73295 564.565254,297.950661 L591.623391,333.186903 C591.579871,332.620856 591.541792,332.071146 591.509152,331.537756 C591.476513,331.004365 591.460193,330.498196 591.460193,330.019233 L591.460193,296.873 L597.008906,296.873 Z M646.947326,321.169352 L646.947326,339.130366 C644.597271,340.828506 642.089495,342.09665 639.423923,342.934835 C636.758352,343.77302 633.837147,344.192106 630.66022,344.192106 C626.89578,344.192106 623.501307,343.609739 620.4767,342.444989 C617.452092,341.280239 614.868158,339.647436 612.724821,337.546531 C610.581484,335.445626 608.933206,332.925667 607.779938,329.986577 C606.62667,327.047488 606.050045,323.814537 606.050045,320.28763 C606.050045,316.71718 606.610351,313.46246 607.730979,310.52337 C608.851607,307.58428 610.445486,305.064321 612.512664,302.963416 C614.579842,300.862512 617.093058,299.235151 620.052386,298.081286 C623.011715,296.927422 626.31915,296.350498 629.974791,296.350498 C631.824371,296.350498 633.543367,296.486565 635.13183,296.758703 C636.720294,297.030841 638.189056,297.422713 639.538162,297.934333 C640.887267,298.445952 642.138435,299.066417 643.291703,299.795747 C644.444971,300.525076 645.522063,301.346921 646.523012,302.261304 L644.72784,305.135066 C644.444963,305.570487 644.080493,305.848063 643.634418,305.967804 C643.188342,306.087545 642.693315,305.984134 642.149321,305.657568 C641.627086,305.352774 641.028702,304.982672 640.354149,304.547251 C639.679596,304.11183 638.858177,303.692744 637.889867,303.28998 C636.921558,302.887216 635.779187,302.544327 634.462721,302.261304 C633.146255,301.978281 631.585015,301.836771 629.778954,301.836771 C627.146022,301.836771 624.763363,302.266742 622.630906,303.126698 C620.498449,303.986654 618.681535,305.216699 617.180111,306.81687 C615.678687,308.417041 614.525437,310.354634 613.720325,312.629707 C612.915214,314.90478 612.512664,317.457396 612.512664,320.28763 C612.512664,323.22672 612.931533,325.855532 613.769284,328.174148 C614.607036,330.492763 615.803805,332.463012 617.359628,334.084954 C618.915452,335.706896 620.803083,336.942383 623.02258,337.791454 C625.242076,338.640524 627.733532,339.065053 630.497023,339.065053 C632.673,339.065053 634.60415,338.820132 636.290532,338.330284 C637.976914,337.840436 639.625192,337.160101 641.235415,336.28926 L641.235415,326.002498 L633.956809,326.002498 C633.543373,326.002498 633.211542,325.882759 632.961304,325.643278 C632.711067,325.403796 632.58595,325.109892 632.58595,324.761555 L632.58595,321.169352 L646.947326,321.169352 Z M683.14452,320.614194 C680.837984,321.833372 679.102669,323.31378 677.938521,325.055463 C676.774374,326.797145 676.192309,328.691197 676.192309,330.737674 C676.192309,332.152791 676.453422,333.399164 676.975656,334.47683 C677.497891,335.554497 678.183313,336.463424 679.031944,337.203639 C679.880575,337.943854 680.84887,338.50445 681.936859,338.885443 C683.024847,339.266436 684.134579,339.45693 685.266087,339.45693 C687.703181,339.45693 689.895445,339.01063 691.842944,338.118018 C693.790443,337.225405 695.49312,336.028016 696.951024,334.525815 L683.14452,320.614194 Z M713.303408,343.669604 L707.656777,343.669604 C707.025743,343.669604 706.514396,343.593406 706.122721,343.441009 C705.731045,343.288612 705.306736,342.972936 704.849781,342.493974 L700.117055,337.726141 C698.071636,339.707305 695.716177,341.280239 693.050605,342.444989 C690.385033,343.609739 687.452948,344.192106 684.254263,344.192106 C682.513481,344.192106 680.810805,343.898201 679.146182,343.310383 C677.48156,342.722565 675.985598,341.868065 674.658253,340.746857 C673.330907,339.625649 672.264694,338.259537 671.459583,336.64848 C670.654471,335.037424 670.251921,333.21957 670.251921,331.194863 C670.251921,329.670891 670.507595,328.228582 671.018949,326.867892 C671.530304,325.507202 672.242926,324.249944 673.156836,323.096079 C674.070746,321.942214 675.147839,320.908106 676.388145,319.993722 C677.628452,319.079339 678.988417,318.295594 680.468082,317.642463 C679.140736,315.944322 678.161561,314.306076 677.530528,312.727676 C676.899494,311.149276 676.583982,309.511031 676.583982,307.81289 C676.583982,306.223604 676.872295,304.732311 677.448929,303.338965 C678.025563,301.945619 678.857861,300.731902 679.94585,299.697778 C681.033838,298.663653 682.355724,297.847252 683.911548,297.248548 C685.467371,296.649845 687.213567,296.350498 689.150186,296.350498 C690.869208,296.350498 692.435888,296.628074 693.850272,297.183236 C695.264657,297.738397 696.483186,298.473158 697.505895,299.387542 C698.528604,300.301925 699.339144,301.363247 699.937537,302.57154 C700.535931,303.779832 700.878642,305.03709 700.965681,306.343352 L697.342698,307.061793 C696.624626,307.235961 696.091519,306.898515 695.743363,306.049445 C695.591045,305.483398 695.346251,304.895589 695.008974,304.286 C694.671698,303.676411 694.236509,303.121258 693.703395,302.620524 C693.17028,302.11979 692.528377,301.706147 691.777665,301.379581 C691.026953,301.053016 690.151135,300.889736 689.150186,300.889736 C688.062198,300.889736 687.077583,301.063901 686.196312,301.412238 C685.315042,301.760574 684.564341,302.244973 683.944187,302.865447 C683.324034,303.485922 682.850766,304.21524 682.52437,305.053425 C682.197973,305.89161 682.034777,306.800537 682.034777,307.780233 C682.034777,308.54222 682.121815,309.271538 682.295893,309.968211 C682.469971,310.664885 682.747404,311.372433 683.1282,312.090877 C683.508996,312.809321 683.993144,313.538639 684.580657,314.278855 C685.168171,315.01907 685.875353,315.802815 686.702224,316.630115 L700.149694,330.313141 C700.976565,328.832711 701.640228,327.292433 702.140703,325.692262 C702.641178,324.092091 702.967569,322.497387 703.119888,320.908101 C703.163407,320.494452 703.293964,320.167891 703.511561,319.92841 C703.729159,319.688928 704.033791,319.569189 704.425467,319.569189 L707.983172,319.569189 C707.961412,322.072858 707.569742,324.527506 706.80815,326.933205 C706.046558,329.338904 704.947706,331.597615 703.511561,333.709405 L713.303408,343.669604 Z M774.535091,321.169352 L774.535091,339.130366 C772.185036,340.828506 769.67726,342.09665 767.011689,342.934835 C764.346117,343.77302 761.424912,344.192106 758.247986,344.192106 C754.483546,344.192106 751.089073,343.609739 748.064465,342.444989 C745.039857,341.280239 742.455923,339.647436 740.312586,337.546531 C738.169249,335.445626 736.520971,332.925667 735.367703,329.986577 C734.214436,327.047488 733.63781,323.814537 733.63781,320.28763 C733.63781,316.71718 734.198116,313.46246 735.318744,310.52337 C736.439372,307.58428 738.033251,305.064321 740.100429,302.963416 C742.167607,300.862512 744.680823,299.235151 747.640152,298.081286 C750.59948,296.927422 753.906915,296.350498 757.562556,296.350498 C759.412137,296.350498 761.131133,296.486565 762.719596,296.758703 C764.308059,297.030841 765.776821,297.422713 767.125927,297.934333 C768.475033,298.445952 769.7262,299.066417 770.879468,299.795747 C772.032736,300.525076 773.109828,301.346921 774.110778,302.261304 L772.315606,305.135066 C772.032729,305.570487 771.668258,305.848063 771.222183,305.967804 C770.776108,306.087545 770.28108,305.984134 769.737086,305.657568 C769.214852,305.352774 768.616467,304.982672 767.941914,304.547251 C767.267361,304.11183 766.445942,303.692744 765.477633,303.28998 C764.509323,302.887216 763.366952,302.544327 762.050486,302.261304 C760.73402,301.978281 759.17278,301.836771 757.366719,301.836771 C754.733787,301.836771 752.351129,302.266742 750.218671,303.126698 C748.086214,303.986654 746.2693,305.216699 744.767876,306.81687 C743.266452,308.417041 742.113202,310.354634 741.308091,312.629707 C740.502979,314.90478 740.100429,317.457396 740.100429,320.28763 C740.100429,323.22672 740.519299,325.855532 741.35705,328.174148 C742.194801,330.492763 743.39157,332.463012 744.947394,334.084954 C746.503217,335.706896 748.390849,336.942383 750.610345,337.791454 C752.829842,338.640524 755.321298,339.065053 758.084788,339.065053 C760.260765,339.065053 762.191916,338.820132 763.878298,338.330284 C765.56468,337.840436 767.212957,337.160101 768.82318,336.28926 L768.82318,326.002498 L761.544574,326.002498 C761.131139,326.002498 760.799307,325.882759 760.54907,325.643278 C760.298832,325.403796 760.173716,325.109892 760.173716,324.761555 L760.173716,321.169352 L774.535091,321.169352 Z M808.675997,326.296405 L801.332112,307.257731 C801.114514,306.691684 800.88604,306.03312 800.646683,305.28202 C800.407325,304.530919 800.178851,303.730846 799.961254,302.881775 C799.504298,304.645229 799.03647,306.114752 798.557756,307.290388 L791.21387,326.296405 L808.675997,326.296405 Z M821.862351,343.669604 L816.966428,343.669604 C816.400674,343.669604 815.943725,343.528094 815.595569,343.24507 C815.247413,342.962047 814.9863,342.60283 814.812221,342.16741 L810.43853,330.8683 L789.451338,330.8683 L785.077646,342.16741 C784.947088,342.559288 784.696854,342.90762 784.326938,343.212414 C783.957022,343.517209 783.500074,343.669604 782.956079,343.669604 L778.060156,343.669604 L796.762584,296.873 L803.159924,296.873 L821.862351,343.669604 Z M851.955961,304.188031 C851.760123,304.514596 851.547968,304.759517 851.319491,304.9228 C851.091013,305.086082 850.81358,305.167722 850.487184,305.167722 C850.117268,305.167722 849.682079,304.982671 849.181604,304.612564 C848.681129,304.242456 848.055545,303.834256 847.304833,303.387949 C846.554121,302.941643 845.651105,302.533442 844.595756,302.163335 C843.540407,301.793227 842.26204,301.608176 840.760616,301.608176 C839.346231,301.608176 838.100503,301.79867 837.023394,302.179663 C835.946286,302.560656 835.043269,303.07771 834.314316,303.730841 C833.585364,304.383972 833.035938,305.15139 832.666022,306.033117 C832.296106,306.914844 832.111151,307.867312 832.111151,308.890551 C832.111151,310.196813 832.432103,311.279905 833.074016,312.139861 C833.715929,312.999817 834.564547,313.734578 835.619896,314.344167 C836.675245,314.953756 837.872014,315.481696 839.21024,315.928002 C840.548466,316.374308 841.919311,316.836936 843.322816,317.315899 C844.726321,317.794861 846.097166,318.333686 847.435391,318.93239 C848.773617,319.531093 849.970386,320.287625 851.025735,321.202009 C852.081084,322.116392 852.929702,323.237584 853.571615,324.565617 C854.213529,325.89365 854.53448,327.526453 854.53448,329.464075 C854.53448,331.510552 854.186329,333.431817 853.490017,335.227927 C852.793704,337.024038 851.77645,338.586086 850.438224,339.914119 C849.099999,341.242152 847.457161,342.287146 845.509661,343.049132 C843.562162,343.811118 841.348139,344.192106 838.867525,344.192106 C835.821158,344.192106 833.057709,343.642395 830.577095,342.542958 C828.096481,341.443521 825.974936,339.95767 824.212394,338.085361 L826.040206,335.080974 C826.214284,334.841492 826.426439,334.640113 826.676676,334.47683 C826.926913,334.313548 827.204346,334.231907 827.508983,334.231907 C827.79186,334.231907 828.112812,334.346204 828.471848,334.5748 C828.830884,334.803395 829.238874,335.091857 829.695829,335.440194 C830.152784,335.78853 830.67501,336.169518 831.262524,336.583167 C831.850038,336.996817 832.519141,337.377804 833.269853,337.726141 C834.020565,338.074478 834.874623,338.362939 835.832053,338.591535 C836.789483,338.820131 837.866575,338.934427 839.063362,338.934427 C840.564786,338.934427 841.902992,338.727606 843.078019,338.313956 C844.253047,337.900306 845.248541,337.31794 846.064533,336.566839 C846.880524,335.815739 847.506108,334.917697 847.941303,333.872687 C848.376499,332.827678 848.594093,331.662945 848.594093,330.378454 C848.594093,328.963337 848.273141,327.804046 847.631228,326.900548 C846.989315,325.997051 846.146137,325.240518 845.101668,324.63093 C844.057199,324.021341 842.86043,323.504286 841.511324,323.079751 C840.162218,322.655216 838.791373,322.219802 837.398748,321.773496 C836.006123,321.327189 834.635278,320.810135 833.286173,320.222317 C831.937067,319.634499 830.740298,318.872525 829.695829,317.93637 C828.65136,317.000216 827.808181,315.83004 827.166268,314.425808 C826.524355,313.021577 826.203403,311.285363 826.203403,309.217115 C826.203403,307.562516 826.524355,305.962369 827.166268,304.416626 C827.808181,302.870882 828.743837,301.499328 829.973264,300.301921 C831.202691,299.104514 832.714973,298.146603 834.510153,297.428159 C836.305334,296.709714 838.367041,296.350498 840.695337,296.350498 C843.306509,296.350498 845.683728,296.764141 847.827065,297.591441 C849.970402,298.41874 851.858034,299.616129 853.490017,301.183643 L851.955961,304.188031 Z M904.081226,304.188031 C903.885388,304.514596 903.673233,304.759517 903.444756,304.9228 C903.216278,305.086082 902.938845,305.167722 902.612449,305.167722 C902.242533,305.167722 901.807344,304.982671 901.306869,304.612564 C900.806394,304.242456 900.180811,303.834256 899.430098,303.387949 C898.679386,302.941643 897.77637,302.533442 896.721021,302.163335 C895.665672,301.793227 894.387305,301.608176 892.885881,301.608176 C891.471496,301.608176 890.225768,301.79867 889.148659,302.179663 C888.071551,302.560656 887.168534,303.07771 886.439582,303.730841 C885.710629,304.383972 885.161203,305.15139 884.791287,306.033117 C884.421371,306.914844 884.236416,307.867312 884.236416,308.890551 C884.236416,310.196813 884.557368,311.279905 885.199281,312.139861 C885.841194,312.999817 886.689812,313.734578 887.745161,314.344167 C888.80051,314.953756 889.997279,315.481696 891.335505,315.928002 C892.673731,316.374308 894.044576,316.836936 895.448081,317.315899 C896.851586,317.794861 898.222431,318.333686 899.560656,318.93239 C900.898882,319.531093 902.095652,320.287625 903.151,321.202009 C904.206349,322.116392 905.054967,323.237584 905.696881,324.565617 C906.338794,325.89365 906.659745,327.526453 906.659745,329.464075 C906.659745,331.510552 906.311594,333.431817 905.615282,335.227927 C904.918969,337.024038 903.901715,338.586086 902.56349,339.914119 C901.225264,341.242152 899.582426,342.287146 897.634927,343.049132 C895.687427,343.811118 893.473404,344.192106 890.99279,344.192106 C887.946423,344.192106 885.182974,343.642395 882.70236,342.542958 C880.221746,341.443521 878.100201,339.95767 876.33766,338.085361 L878.165471,335.080974 C878.339549,334.841492 878.551704,334.640113 878.801941,334.47683 C879.052178,334.313548 879.329611,334.231907 879.634248,334.231907 C879.917125,334.231907 880.238077,334.346204 880.597113,334.5748 C880.956149,334.803395 881.364139,335.091857 881.821094,335.440194 C882.278049,335.78853 882.800276,336.169518 883.387789,336.583167 C883.975303,336.996817 884.644406,337.377804 885.395118,337.726141 C886.14583,338.074478 886.999888,338.362939 887.957318,338.591535 C888.914748,338.820131 889.99184,338.934427 891.188627,338.934427 C892.690051,338.934427 894.028257,338.727606 895.203285,338.313956 C896.378312,337.900306 897.373807,337.31794 898.189798,336.566839 C899.005789,335.815739 899.631373,334.917697 900.066569,333.872687 C900.501764,332.827678 900.719358,331.662945 900.719358,330.378454 C900.719358,328.963337 900.398407,327.804046 899.756493,326.900548 C899.11458,325.997051 898.271402,325.240518 897.226933,324.63093 C896.182464,324.021341 894.985695,323.504286 893.636589,323.079751 C892.287483,322.655216 890.916639,322.219802 889.524013,321.773496 C888.131388,321.327189 886.760543,320.810135 885.411438,320.222317 C884.062332,319.634499 882.865563,318.872525 881.821094,317.93637 C880.776625,317.000216 879.933447,315.83004 879.291533,314.425808 C878.64962,313.021577 878.328668,311.285363 878.328668,309.217115 C878.328668,307.562516 878.64962,305.962369 879.291533,304.416626 C879.933447,302.870882 880.869103,301.499328 882.098529,300.301921 C883.327956,299.104514 884.840238,298.146603 886.635419,297.428159 C888.430599,296.709714 890.492307,296.350498 892.820602,296.350498 C895.431774,296.350498 897.808993,296.764141 899.95233,297.591441 C902.095668,298.41874 903.983299,299.616129 905.615282,301.183643 L904.081226,304.188031 Z M944.423635,338.509894 L944.390996,343.669604 L915.570326,343.669604 L915.570326,296.873 L944.390996,296.873 L944.390996,302.032709 L921.902387,302.032709 L921.902387,317.57715 L940.115222,317.57715 L940.115222,322.540921 L921.902387,322.540921 L921.902387,338.509894 L944.423635,338.509894 Z M966.226814,319.536533 C968.054635,319.536533 969.670273,319.313383 971.073778,318.867077 C972.477284,318.420771 973.652293,317.78942 974.598843,316.973007 C975.545393,316.156593 976.258015,315.182354 976.73673,314.05026 C977.215445,312.918166 977.454799,311.66635 977.454799,310.294775 C977.454799,307.508083 976.540902,305.40721 974.713082,303.992093 C972.885261,302.576975 970.143571,301.869427 966.48793,301.869427 L959.568358,301.869427 L959.568358,319.536533 L966.226814,319.536533 Z M987.834156,343.669604 L982.220164,343.669604 C981.066896,343.669604 980.218278,343.223304 979.674284,342.330692 L967.532394,325.610621 C967.162478,325.088116 966.765368,324.712572 966.341052,324.483976 C965.916737,324.25538 965.258514,324.141084 964.366363,324.141084 L959.568358,324.141084 L959.568358,343.669604 L953.268937,343.669604 L953.268937,296.873 L966.48793,296.873 C969.447259,296.873 972.003993,297.172347 974.15821,297.771051 C976.312427,298.369754 978.091262,299.23514 979.494767,300.367233 C980.898272,301.499327 981.937285,302.865439 982.611838,304.46561 C983.286391,306.065781 983.623662,307.856422 983.623662,309.837586 C983.623662,311.492184 983.362549,313.037905 982.840314,314.474793 C982.31808,315.911681 981.561939,317.201596 980.57187,318.344575 C979.5818,319.487554 978.374151,320.461793 976.948887,321.267322 C975.523622,322.07285 973.907983,322.68243 972.101922,323.096079 C972.907034,323.553271 973.603336,324.217278 974.19085,325.088119 L987.834156,343.669604 Z M1030.98356,296.873 L1011.9221,343.669604 L1006.24283,343.669604 L987.181367,296.873 L992.240488,296.873 C992.806241,296.873 993.26319,297.01451 993.611346,297.297533 C993.959502,297.580556 994.220616,297.939773 994.394694,298.375194 L1007.58105,331.390802 C1007.86392,332.131017 1008.14136,332.936533 1008.41335,333.807374 C1008.68535,334.678216 1008.93015,335.592586 1009.14774,336.550511 C1009.36534,335.592586 1009.59382,334.678216 1009.83317,333.807374 C1010.07253,332.936533 1010.33364,332.131017 1010.61652,331.390802 L1023.77023,298.375194 C1023.90079,298.005086 1024.15647,297.662198 1024.53726,297.346518 C1024.91806,297.030838 1025.38045,296.873 1025.92444,296.873 L1030.98356,296.873 Z M1043.48449,343.669604 L1037.15243,343.669604 L1037.15243,296.873 L1043.48449,296.873 L1043.48449,343.669604 Z M1088.26587,334.003313 C1088.61402,334.003313 1088.91865,334.144822 1089.17977,334.427846 L1091.69301,337.138326 C1089.77815,339.358971 1087.45533,341.089743 1084.72448,342.330692 C1081.99363,343.571641 1078.69164,344.192106 1074.8184,344.192106 C1071.46739,344.192106 1068.42107,343.609739 1065.67934,342.444989 C1062.93761,341.280239 1060.59847,339.647436 1058.66185,337.546531 C1056.72523,335.445626 1055.22383,332.925667 1054.1576,329.986577 C1053.09137,327.047488 1052.55826,323.814537 1052.55826,320.28763 C1052.55826,316.760722 1053.11313,313.527772 1054.22288,310.588683 C1055.33263,307.649593 1056.89387,305.124191 1058.90665,303.012401 C1060.91942,300.900611 1063.32928,299.262365 1066.13629,298.097615 C1068.9433,296.932864 1072.04402,296.350498 1075.43855,296.350498 C1078.76779,296.350498 1081.70532,296.88388 1084.25121,297.950661 C1086.7971,299.017441 1089.03832,300.465193 1090.97494,302.29396 L1088.88602,305.200379 C1088.75546,305.418089 1088.58682,305.597698 1088.3801,305.739209 C1088.17339,305.880721 1087.89595,305.951476 1087.5478,305.951476 C1087.15612,305.951476 1086.67741,305.739211 1086.11166,305.314676 C1085.54591,304.890141 1084.80608,304.416628 1083.89217,303.894123 C1082.97826,303.371619 1081.83589,302.898106 1080.46503,302.47357 C1079.09416,302.049035 1077.40781,301.836771 1075.40591,301.836771 C1072.99057,301.836771 1070.78199,302.255857 1068.78009,303.094042 C1066.77819,303.932227 1065.05376,305.145944 1063.60673,306.735229 C1062.15971,308.324515 1061.03366,310.262108 1060.22854,312.548066 C1059.42343,314.834025 1059.02088,317.413853 1059.02088,320.28763 C1059.02088,323.204949 1059.43975,325.806548 1060.2775,328.092507 C1061.11525,330.378465 1062.25763,332.310615 1063.70465,333.889015 C1065.15167,335.467415 1066.85979,336.670247 1068.82905,337.497546 C1070.79831,338.324846 1072.92529,338.738489 1075.21007,338.738489 C1076.6027,338.738489 1077.8593,338.656849 1078.97993,338.493566 C1080.10056,338.330283 1081.13413,338.074478 1082.08068,337.726141 C1083.02723,337.377804 1083.90849,336.936948 1084.72448,336.403557 C1085.54047,335.870167 1086.35101,335.233374 1087.15612,334.493159 C1087.52604,334.166593 1087.89595,334.003313 1088.26587,334.003313 L1088.26587,334.003313 Z M1127.89021,338.509894 L1127.85757,343.669604 L1099.0369,343.669604 L1099.0369,296.873 L1127.85757,296.873 L1127.85757,302.032709 L1105.36896,302.032709 L1105.36896,317.57715 L1123.58179,317.57715 L1123.58179,322.540921 L1105.36896,322.540921 L1105.36896,338.509894 L1127.89021,338.509894 Z M1160.66025,304.188031 C1160.46442,304.514596 1160.25226,304.759517 1160.02378,304.9228 C1159.79531,305.086082 1159.51787,305.167722 1159.19148,305.167722 C1158.82156,305.167722 1158.38637,304.982671 1157.8859,304.612564 C1157.38542,304.242456 1156.75984,303.834256 1156.00913,303.387949 C1155.25842,302.941643 1154.3554,302.533442 1153.30005,302.163335 C1152.2447,301.793227 1150.96633,301.608176 1149.46491,301.608176 C1148.05052,301.608176 1146.8048,301.79867 1145.72769,302.179663 C1144.65058,302.560656 1143.74756,303.07771 1143.01861,303.730841 C1142.28966,304.383972 1141.74023,305.15139 1141.37032,306.033117 C1141.0004,306.914844 1140.81544,307.867312 1140.81544,308.890551 C1140.81544,310.196813 1141.1364,311.279905 1141.77831,312.139861 C1142.42022,312.999817 1143.26884,313.734578 1144.32419,314.344167 C1145.37954,314.953756 1146.57631,315.481696 1147.91453,315.928002 C1149.25276,316.374308 1150.6236,316.836936 1152.02711,317.315899 C1153.43061,317.794861 1154.80146,318.333686 1156.13969,318.93239 C1157.47791,319.531093 1158.67468,320.287625 1159.73003,321.202009 C1160.78538,322.116392 1161.634,323.237584 1162.27591,324.565617 C1162.91782,325.89365 1163.23877,327.526453 1163.23877,329.464075 C1163.23877,331.510552 1162.89062,333.431817 1162.19431,335.227927 C1161.498,337.024038 1160.48074,338.586086 1159.14252,339.914119 C1157.80429,341.242152 1156.16145,342.287146 1154.21396,343.049132 C1152.26646,343.811118 1150.05243,344.192106 1147.57182,344.192106 C1144.52545,344.192106 1141.762,343.642395 1139.28139,342.542958 C1136.80078,341.443521 1134.67923,339.95767 1132.91669,338.085361 L1134.7445,335.080974 C1134.91858,334.841492 1135.13073,334.640113 1135.38097,334.47683 C1135.63121,334.313548 1135.90864,334.231907 1136.21328,334.231907 C1136.49615,334.231907 1136.81711,334.346204 1137.17614,334.5748 C1137.53518,334.803395 1137.94317,335.091857 1138.40012,335.440194 C1138.85708,335.78853 1139.3793,336.169518 1139.96682,336.583167 C1140.55433,336.996817 1141.22343,337.377804 1141.97415,337.726141 C1142.72486,338.074478 1143.57892,338.362939 1144.53635,338.591535 C1145.49378,338.820131 1146.57087,338.934427 1147.76766,338.934427 C1149.26908,338.934427 1150.60729,338.727606 1151.78231,338.313956 C1152.95734,337.900306 1153.95284,337.31794 1154.76883,336.566839 C1155.58482,335.815739 1156.2104,334.917697 1156.6456,333.872687 C1157.08079,332.827678 1157.29839,331.662945 1157.29839,330.378454 C1157.29839,328.963337 1156.97744,327.804046 1156.33552,326.900548 C1155.69361,325.997051 1154.85043,325.240518 1153.80596,324.63093 C1152.76149,324.021341 1151.56472,323.504286 1150.21562,323.079751 C1148.86651,322.655216 1147.49567,322.219802 1146.10304,321.773496 C1144.71042,321.327189 1143.33957,320.810135 1141.99047,320.222317 C1140.64136,319.634499 1139.44459,318.872525 1138.40012,317.93637 C1137.35565,317.000216 1136.51248,315.83004 1135.87056,314.425808 C1135.22865,313.021577 1134.9077,311.285363 1134.9077,309.217115 C1134.9077,307.562516 1135.22865,305.962369 1135.87056,304.416626 C1136.51248,302.870882 1137.44813,301.499328 1138.67756,300.301921 C1139.90699,299.104514 1141.41927,298.146603 1143.21445,297.428159 C1145.00963,296.709714 1147.07134,296.350498 1149.39963,296.350498 C1152.0108,296.350498 1154.38802,296.764141 1156.53136,297.591441 C1158.6747,298.41874 1160.56233,299.616129 1162.19431,301.183643 L1160.66025,304.188031 Z" id="PLUMBING,-HEATING-&amp;" fill="#717979"></path>
            <path d="M790.652782,118.340529 L790.652782,203.869163 C779.462044,211.955547 767.520255,217.994327 754.827056,221.985683 C742.133858,225.977039 728.223357,227.972687 713.095137,227.972687 C695.169233,227.972687 679.005076,225.199514 664.602181,219.653084 C650.199287,214.106654 637.89484,206.331401 627.688473,196.327093 C617.482105,186.322784 609.633163,174.322977 604.141412,160.327313 C598.649661,146.331648 595.903827,130.936648 595.903827,114.14185 C595.903827,97.1397094 598.571949,81.6410391 603.908273,67.6453744 C609.244597,53.6497098 616.834498,41.6499032 626.678203,31.6455947 C636.521907,21.6412862 648.489601,13.8919511 662.581641,8.39735683 C676.673682,2.90276254 692.423373,0.155506608 709.831188,0.155506608 C718.638714,0.155506608 726.824409,0.803444328 734.388519,2.09933921 C741.952629,3.39523409 748.946735,5.26129472 755.371048,7.69757709 C761.79536,10.1338595 767.753303,13.0884555 773.245054,16.5614537 C778.736805,20.034452 783.865817,23.9479959 788.632242,28.3022026 L780.083804,41.9867841 C778.736771,44.0602159 777.001196,45.3820089 774.877029,45.9522026 C772.752861,46.5223964 770.395588,46.0299637 767.805139,44.4748899 C765.318308,43.0234876 762.468858,41.261097 759.256701,39.1876652 C756.044545,37.1142334 752.133026,35.1185852 747.522028,33.2006608 C742.911029,31.2827364 737.471169,29.6499333 731.202283,28.3022026 C724.933397,26.954472 717.498921,26.2806167 708.898632,26.2806167 C696.36086,26.2806167 685.014865,28.3280999 674.860307,32.4231278 C664.705748,36.5181556 656.053779,42.3755126 648.904141,49.9953744 C641.754503,57.6152363 636.262834,66.8418695 632.42897,77.6755507 C628.595106,88.5092318 626.678203,100.664543 626.678203,114.14185 C626.678203,128.137515 628.672818,140.655672 632.662109,151.696696 C636.6514,162.73772 642.350302,172.119859 649.758985,179.843392 C657.167668,187.566926 666.15639,193.4502 676.72542,197.493392 C687.294451,201.536584 699.158528,203.55815 712.318007,203.55815 C722.679801,203.55815 731.875756,202.391862 739.906147,200.059251 C747.936538,197.72664 755.785479,194.486952 763.453207,190.340088 L763.453207,141.355507 L728.793178,141.355507 C726.824437,141.355507 725.244287,140.785321 724.05268,139.644934 C722.861074,138.504546 722.26528,137.105001 722.26528,135.446256 L722.26528,118.340529 L790.652782,118.340529 Z M953.228526,142.755066 L918.257644,52.0947137 C917.221465,49.3992523 916.133493,46.2632337 914.993695,42.6865639 C913.853898,39.109894 912.765926,35.3000202 911.729746,31.2568282 C909.553769,39.654227 907.326017,46.6519544 905.046422,52.2502203 L870.07554,142.755066 L953.228526,142.755066 Z M1016.02069,225.484581 L992.706766,225.484581 C990.012699,225.484581 987.836755,224.810726 986.178868,223.462996 C984.520981,222.115265 983.277584,220.404709 982.448641,218.331278 L961.621538,164.525991 L861.682529,164.525991 L840.855426,218.331278 C840.233718,220.197366 839.042129,221.856087 837.280624,223.307489 C835.519119,224.758891 833.343175,225.484581 830.752726,225.484581 L807.438805,225.484581 L896.497984,2.64361233 L926.961508,2.64361233 L1016.02069,225.484581 Z M1159.32359,37.4770925 C1158.39103,39.0321664 1157.38077,40.1984543 1156.29278,40.9759912 C1155.20479,41.7535281 1153.88368,42.1422907 1152.32941,42.1422907 C1150.56791,42.1422907 1148.49558,41.2610954 1146.11237,39.4986784 C1143.72915,37.7362614 1140.75018,35.7924482 1137.17536,33.6671806 C1133.60055,31.541913 1129.30047,29.5980999 1124.27499,27.8356828 C1119.24952,26.0732658 1113.16206,25.1920705 1106.01242,25.1920705 C1099.27726,25.1920705 1093.34522,26.0991833 1088.21613,27.9134361 C1083.08704,29.727689 1078.78696,32.1898523 1075.31576,35.3 C1071.84456,38.4101477 1069.22825,42.0645165 1067.46674,46.2632159 C1065.70523,50.4619153 1064.8245,54.9974793 1064.8245,59.8700441 C1064.8245,66.0903395 1066.35284,71.2479237 1069.40957,75.3429515 C1072.4663,79.4379794 1076.50734,82.936843 1081.53281,85.8396476 C1086.55828,88.7424521 1092.25718,91.2564505 1098.62968,93.3817181 C1105.00219,95.5069857 1111.53002,97.7099739 1118.21338,99.9907489 C1124.89673,102.271524 1131.42457,104.837357 1137.79707,107.688326 C1144.16957,110.539295 1149.86847,114.141828 1154.89394,118.496035 C1159.91941,122.850242 1163.96045,128.189249 1167.01718,134.513216 C1170.07391,140.837183 1171.60225,148.612436 1171.60225,157.839207 C1171.60225,167.584337 1169.94439,176.733217 1166.62862,185.286123 C1163.31284,193.83903 1158.46878,201.277355 1152.09627,207.601322 C1145.72377,213.925289 1137.90073,218.90145 1128.62693,222.529956 C1119.35312,226.158462 1108.81015,227.972687 1096.99771,227.972687 C1082.49119,227.972687 1069.33191,225.355019 1057.51947,220.119604 C1045.70702,214.884188 1035.60442,207.808708 1027.21137,198.892952 L1035.91523,184.586344 C1036.74418,183.445956 1037.75444,182.487008 1038.94604,181.709471 C1040.13765,180.931934 1041.45876,180.543172 1042.90941,180.543172 C1044.25644,180.543172 1045.78478,181.087439 1047.49448,182.175991 C1049.20418,183.264543 1051.14698,184.638171 1053.32296,186.296916 C1055.49894,187.955662 1057.98573,189.769887 1060.78342,191.739648 C1063.5811,193.709408 1066.7673,195.523633 1070.34212,197.182379 C1073.91694,198.841124 1077.98389,200.214752 1082.54308,201.303304 C1087.10227,202.391856 1092.23128,202.936123 1097.93026,202.936123 C1105.0799,202.936123 1111.45231,201.951258 1117.04768,199.981498 C1122.64305,198.011738 1127.3835,195.238564 1131.26917,191.661894 C1135.15484,188.085224 1138.13382,183.808835 1140.20617,178.832599 C1142.27853,173.856363 1143.3147,168.310016 1143.3147,162.193392 C1143.3147,155.454739 1141.78636,149.934309 1138.72963,145.631938 C1135.6729,141.329567 1131.65776,137.727034 1126.6841,134.824229 C1121.71044,131.921425 1116.01154,129.459261 1109.58722,127.437665 C1103.16291,125.416069 1096.63508,123.342668 1090.00353,121.217401 C1083.37198,119.092133 1076.84415,116.62997 1070.41984,113.830837 C1063.99552,111.031704 1058.29662,107.403253 1053.32296,102.945374 C1048.3493,98.4874961 1044.33416,92.9152317 1041.27744,86.2284141 C1038.22071,79.5415965 1036.69236,71.2739112 1036.69236,61.4251101 C1036.69236,53.5460693 1038.22071,45.9263217 1041.27744,38.5656388 C1044.33416,31.2049559 1048.78967,24.6737436 1054.64408,18.9718062 C1060.4985,13.2698687 1067.69984,8.70838715 1076.24832,5.28722467 C1084.7968,1.86606219 1094.61445,0.155506608 1105.70157,0.155506608 C1118.13572,0.155506608 1129.45582,2.12523728 1139.66218,6.06475771 C1149.86855,10.0042781 1158.85727,15.7061301 1166.62862,23.1704846 L1159.32359,37.4770925 Z" id="GAS" fill="#00AAED"></path>
        </g>
    </g>
</svg>